<svg x="0px" y="0px"
	 viewBox="0 0 40 40" style="enable-background:new 0 0 40 40;" xml:space="preserve">
<style type="text/css">
	.st0{opacity:0.9;fill:#AFAFAF;enable-background:new    ;}
</style>
<path class="st0" d="M25.8,3.4c0.9,1.4,2.3,2.9,4.3,4.2c-0.2-2.6-1.9-4.4-3.3-5.5c-1.5-1-2.6-1.3-2.6-1.3S24.8,2.1,25.8,3.4z
	 M9.3,7.6c2-1.3,3.4-2.8,4.3-4.2c1-1.3,1.5-2.5,1.5-2.5S14,1.2,12.5,2.2C11.2,3.2,9.5,5,9.3,7.6z M2.7,11.6c-0.2,1.6,0,3.6,1.3,5
	l-0.2,1C3.8,17.8,4,18,4.2,18c0.2,0,0.4-0.1,0.5-0.3l0.2-1c1.6-0.7,2.8-1.9,3.6-2.9c0.4-0.6,0.8-1.1,1-1.5c0.2-0.4,0.4-0.7,0.4-0.7
	s-1,0-2.3,0.6c-0.9,0.5-2.2,1.6-2.9,3.4c0,0,0,0,0,0c0.2-1.9,0.2-3.4-0.2-4.7C4.2,9.5,3.7,8.5,3.7,8.5S3.5,8.9,3.3,9.4
	C3.1,10,2.8,10.7,2.7,11.6z M7,10.3l-0.4,0.9c-0.1,0.2,0,0.4,0.2,0.5c0.2,0.1,0.4,0,0.5-0.2l0.4-0.9c1.7-0.3,2.9-1.1,3.9-1.9
	l0.2-0.1c0.6-0.4,1-0.9,1.3-1.2c0.3-0.3,0.5-0.5,0.5-0.5s-1-0.3-2.3,0.1c-1.1,0.3-2.4,1-3.4,2.5l0,0c0.6-1.7,0.8-3.1,0.8-4.3
	C8.4,3.6,8.2,2.7,8.2,2.7C8,2.5,5,7,7,10.3z M1,25.7c0.9,2.1,2.9,4,5.3,4.1c0.3,0.5,0.7,1.3,0.8,1.2c0.2,0.2,0.4,0.2,0.6,0.1
	c0.2-0.1,0.2-0.4,0.1-0.6c0,0-0.5-0.8-0.8-1.2c1.5-3.3,1.6-6.2,1.6-7.4v0v0v0v0v0v0c0-0.4,0-0.6,0.1-0.7c0,0-1.2,0.5-2.1,1.8
	c-0.8,1.2-1.5,3.4-0.3,5.9l0,0c0,0,0,0,0,0c0,0,0,0,0,0c0,0,0,0,0,0c-1.4-2.3-2.6-4-3.8-5.3c-1.2-1.3-2.1-2-2.3-2.2l0,0l0,0
	C-0.1,21.4,0,23.4,1,25.7z M3.7,32.5c1.7,1.6,4.2,2.6,6.5,1.9l1.2,0.9c0.2,0.1,0.4,0.1,0.5-0.1c0.1-0.2,0-0.4-0.1-0.5l-1.2-0.9
	c0.2-2.3-0.3-4.2-0.7-5.5c-0.2-1-0.5-1.8-0.7-2.2l0,0c-0.1-0.2-0.1-0.3-0.1-0.3c0,0-0.9,0.8-1.2,2.4c-0.4,1.5,0,3.7,2.1,5.6l0,0l0,0
	c0,0,0,0,0,0c-1.9-1.4-3.6-2.4-5-3.2l0,0l0,0c-0.2-0.1-0.5-0.3-0.7-0.4c-1.8-0.9-3.1-1.3-3.1-1.3s0.1,0.5,0.6,1.2l0.1,0.2
	C2.3,30.9,2.9,31.7,3.7,32.5z M19.4,38.3c0.1-0.2-0.1-0.4-0.3-0.5l-1.5-0.5c-0.6-2.3-1.9-4.1-2.9-5.3c-1.1-1.3-1.9-2.2-1.9-2.2
	s-0.1,0.3-0.2,0.8c-0.1,0.5-0.2,1.2,0.1,2c0.3,1.5,1.6,3.5,4.3,4.7l0,0l0,0l0,0c0,0,0,0,0,0l0,0c-2.8-1-5.1-1.2-7-1.4
	c-2.1-0.1-3.5,0-3.5,0l0,0c0.2,0.2,1.7,1.6,3.9,2.4c2.2,0.8,5,0.9,7-0.5l1.5,0.5C19.1,38.6,19.4,38.5,19.4,38.3z M1.2,18.3
	c0.2,2.1,1,4.5,3,5.5l0.2,1.4c0,0.2,0.2,0.4,0.4,0.3c0.2-0.1,0.3-0.3,0.3-0.5L5,23.7c1.6-1.5,2.6-3.1,3.2-4.5c0.6-1,0.8-2,0.9-2.4
	c0-0.2,0.1-0.3,0.1-0.3c0,0-1.1,0.2-2.3,1.3c-1.1,0.9-2.4,2.7-2.3,5.3l0,0c0,0,0,0-0.1,0c-0.3-2.6-0.9-4.5-1.5-6
	c-0.7-1.7-1.5-2.7-1.5-2.7s-0.2,0.4-0.2,1.2C1.3,16.3,1.2,17.3,1.2,18.3z M33.8,16.6c-0.2-1.9-0.2-3.4,0.2-4.7
	c0.3-1.5,0.8-2.4,0.8-2.4l0.4,0.9l0,0.1c0.2,0.5,0.5,1.3,0.5,2.1c0.2,1.6,0,3.6-1.3,5l0.2,1c0,0.2-0.1,0.4-0.3,0.4
	c-0.2,0-0.4-0.1-0.5-0.3l-0.2-1C32,17,30.8,15.8,30,14.8c-0.4-0.6-0.8-1.1-1-1.5c-0.2-0.4-0.4-0.7-0.4-0.7s1,0,2.3,0.6
	C31.8,13.8,33.1,14.8,33.8,16.6L33.8,16.6z M31.7,10.4C31.7,10.4,31.7,10.4,31.7,10.4c-1-1.5-2.4-2.1-3.5-2.4
	c-1.3-0.4-2.3-0.1-2.3-0.1s0.2,0.2,0.5,0.5c0.3,0.3,0.7,0.8,1.3,1.2l0.2,0.1c1,0.7,2.2,1.6,3.9,1.8l0.4,0.9c0.1,0.2,0.3,0.3,0.5,0.2
	c0.2-0.1,0.3-0.3,0.2-0.5l-0.4-0.8c2-3.3-1.1-7.7-1.2-7.6c0,0-0.3,0.9-0.4,2.4C30.9,7.3,31.1,8.7,31.7,10.4z M37,24.7
	c1.3-1.3,2.2-2.1,2.4-2.2l0,0c0.1,0,0,2-1,4.3c-0.9,2.1-2.9,4-5.3,4.1c-0.3,0.5-0.7,1.3-0.8,1.2c0,0,0,0,0,0
	c0.4-0.2,0.7-0.4,1.1-0.6c0.3-0.1,0.5-0.3,0.7-0.4c1.8-0.9,3.1-1.3,3.1-1.3s-0.1,0.5-0.6,1.2l-0.1,0.2c-0.4,0.7-1,1.5-1.8,2.3
	c-1.7,1.6-4.2,2.6-6.5,1.9l-1.2,0.9c-0.2,0.1-0.4,0.1-0.5-0.1c-0.1-0.2,0-0.4,0.1-0.5l1.2-0.9c-0.2-2.3,0.3-4.2,0.7-5.5
	c0.2-1,0.5-1.8,0.7-2.2c0.1-0.2,0.1-0.3,0.1-0.3c0,0,1,0.8,1.2,2.4c0.4,1.5,0,3.7-2.1,5.6l0,0l0,0l0,0c1.3-1,2.5-1.8,3.7-2.4
	c-0.1,0-0.3,0-0.4-0.1c-0.2-0.1-0.2-0.4-0.1-0.6c0,0,0.5-0.8,0.8-1.2c-1.5-3.3-1.6-6.2-1.6-7.4l0,0c0-0.4,0-0.6-0.1-0.7
	c0,0,1.2,0.5,2.1,1.8c0.8,1.2,1.5,3.4,0.3,5.9l0,0c0,0,0,0,0,0l0,0l0,0C34.6,27.7,35.9,26,37,24.7z M22.5,37.5c2.8-1,5.1-1.2,7-1.4
	c2.1-0.1,3.5,0,3.5,0l0,0c-0.2,0.2-1.7,1.6-3.9,2.4c-2.2,0.8-5,0.9-7-0.5l-1.5,0.5c-0.2,0.1-0.4,0-0.5-0.2c-0.1-0.2,0.1-0.4,0.3-0.5
	l1.5-0.5c0.6-2.3,1.9-4.1,2.9-5.3c1.1-1.3,1.9-2.2,1.9-2.2s0.1,0.3,0.2,0.8c0.1,0.5,0.2,1.2-0.1,2C26.4,34.2,25.1,36.2,22.5,37.5
	L22.5,37.5L22.5,37.5L22.5,37.5z M38.1,15.5c-0.1-0.7-0.2-1.2-0.2-1.2s-0.8,1-1.5,2.7c-0.6,1.5-1.1,3.5-1.5,6c0,0,0,0-0.1,0l0,0
	c0.1-2.6-1.2-4.4-2.3-5.3c-1.2-1.1-2.4-1.3-2.4-1.3c0,0,0,0.1,0.1,0.3c0.1,0.4,0.4,1.4,0.9,2.4c0.6,1.4,1.7,3,3.2,4.5l-0.2,1.4
	c0,0.2,0.1,0.4,0.3,0.5c0.2,0.1,0.4-0.1,0.4-0.3l0.2-1.4c2-1,2.8-3.4,3-5.5C38.3,17.3,38.2,16.3,38.1,15.5z"/>
</svg>
